<?xml version="1.0" encoding="UTF-8" standalone="no"?>
<!-- Created with Inkscape (http://www.inkscape.org/) -->

<svg
   xmlns:dc="http://purl.org/dc/elements/1.1/"
   xmlns:cc="http://creativecommons.org/ns#"
   xmlns:rdf="http://www.w3.org/1999/02/22-rdf-syntax-ns#"
   xmlns:svg="http://www.w3.org/2000/svg"
   xmlns="http://www.w3.org/2000/svg"
   xmlns:xlink="http://www.w3.org/1999/xlink"
   xmlns:sodipodi="http://sodipodi.sourceforge.net/DTD/sodipodi-0.dtd"
   xmlns:inkscape="http://www.inkscape.org/namespaces/inkscape"
   width="32"
   height="32"
   id="svg2"
   version="1.1"
   inkscape:version="0.48.4 r9939"
   sodipodi:docname="actuator.svg"
   inkscape:export-filename="/home/balrog/repos/lights/smarthome-com-con/img/actuator.png"
   inkscape:export-xdpi="67.5"
   inkscape:export-ydpi="67.5">
  <defs id="defs4">
  </defs>
  <sodipodi:namedview
     id="base"
     pagecolor="#ffffff"
     bordercolor="#666666"
     borderopacity="1.0"
     inkscape:pageopacity="0.0"
     inkscape:pageshadow="2"
     inkscape:zoom="10.56"
     inkscape:cx="12.007426"
     inkscape:cy="24.612541"
     inkscape:document-units="px"
     inkscape:current-layer="layer1"
     showgrid="false"
     inkscape:window-width="1600"
     inkscape:window-height="876"
     inkscape:window-x="0"
     inkscape:window-y="24"
     inkscape:window-maximized="1" />
  <metadata
     id="metadata7">
    <rdf:RDF>
      <cc:Work
         rdf:about="">
        <dc:format>image/svg+xml</dc:format>
        <dc:type
           rdf:resource="http://purl.org/dc/dcmitype/StillImage" />
        <dc:title />
      </cc:Work>
    </rdf:RDF>
  </metadata>
  <g
     inkscape:label="Layer 1"
     inkscape:groupmode="layer"
     id="layer1"
     transform="translate(0,-1020.3622)">
    <path
       transform="translate(0,1020.3622)"
       style="fill:#4d4d4d;fill-opacity:1;stroke:none"
       d="m 30.776515,15.877841 c 0,8.145677 -6.603376,14.749053 -14.749053,14.749053 -8.145677,0 -14.749053,-6.603376 -14.749053,-14.749053 0,-8.1456771 6.603376,-14.749053 14.749053,-14.749053 8.145677,0 14.749053,6.6033759 14.749053,14.749053 z"
       id="path2985" />
    <path
       sodipodi:type="arc"
       style="fill:#ececec;fill-opacity:1;stroke:#ececec;stroke-width:1.1296221;stroke-linecap:round;stroke-linejoin:round;stroke-miterlimit:4;stroke-opacity:1;stroke-dasharray:none;stroke-dashoffset:0"
       id="path3819-0"
       sodipodi:cx="20.02841"
       sodipodi:cy="8.5625"
       sodipodi:rx="2.5094697"
       sodipodi:ry="2.5094697"
       d="m 22.53788,8.5625 a 2.5094697,2.5094697 0 1 1 -5.01894,0 2.5094697,2.5094697 0 1 1 5.01894,0 z"
       transform="matrix(1.0383532,0,0,1.7755291,-9.8481365,1021.1041)" />
    <path
       style="fill:none;stroke:#ececec;stroke-width:3.5;stroke-linecap:butt;stroke-linejoin:miter;stroke-miterlimit:4;stroke-opacity:1;stroke-dasharray:none"
       d="m 13.24544,1035.0775 7.545138,-3.2069"
       id="path3780-7"
       inkscape:connector-curvature="0"
       sodipodi:nodetypes="cc"
       inkscape:export-xdpi="67.5"
       inkscape:export-ydpi="67.5" />
    <path
       sodipodi:type="arc"
       style="fill:none;stroke:#ececec;stroke-width:2.11310148;stroke-linecap:round;stroke-linejoin:round;stroke-miterlimit:4;stroke-opacity:1;stroke-dasharray:none;stroke-dashoffset:0"
       id="path3819"
       sodipodi:cx="20.02841"
       sodipodi:cy="8.5625"
       sodipodi:rx="2.5094697"
       sodipodi:ry="2.5094697"
       d="m 22.53788,8.5625 a 2.5094697,2.5094697 0 1 1 -5.01894,0 2.5094697,2.5094697 0 1 1 5.01894,0 z"
       transform="matrix(0.75718088,0,0,0.75718088,7.17384,1024.8548)" />
    <path
       style="fill:none;stroke:#4d4d4d;stroke-width:4.19302416;stroke-linecap:round;stroke-linejoin:miter;stroke-miterlimit:4;stroke-opacity:1;stroke-dasharray:none"
       d="m 8.0687854,1040.1409 0,-7.1629"
       id="path3780-1"
       inkscape:connector-curvature="0"
       sodipodi:nodetypes="cc" />
    <path
       style="font-size:medium;font-style:normal;font-variant:normal;font-weight:normal;font-stretch:normal;text-indent:0;text-align:start;text-decoration:none;line-height:normal;letter-spacing:normal;word-spacing:normal;text-transform:none;direction:ltr;block-progression:tb;writing-mode:lr-tb;text-anchor:start;baseline-shift:baseline;color:#000000;fill:#ececec;fill-opacity:1;stroke:none;stroke-width:2;marker:none;visibility:visible;display:inline;overflow:visible;enable-background:accumulate;font-family:Sans;-inkscape-font-specification:Sans"
       d="M 9.875 2.8125 A 1.0001 1.0001 0 0 0 9.28125 3.125 L 2.625 9.75 C 2.0462758 11.008196 1.6405615 12.36135 1.4375 13.78125 L 10.6875 4.53125 A 1.0001 1.0001 0 0 0 9.875 2.8125 z M 10.125 7.90625 A 1.0001 1.0001 0 0 0 9.875 7.9375 A 1.0001 1.0001 0 0 0 9.375 8.21875 L 1.3125 16.28125 C 1.3367022 17.155746 1.4231989 18.014252 1.59375 18.84375 L 10.78125 9.65625 A 1.0001 1.0001 0 0 0 10.125 7.90625 z M 9.96875 13.125 A 1.0001 1.0001 0 0 0 9.28125 13.4375 L 2.0625 20.625 C 2.300154 21.318524 2.6033407 21.982668 2.9375 22.625 L 10.6875 14.84375 A 1.0001 1.0001 0 0 0 9.96875 13.125 z M 10.15625 18.0625 A 1.0001 1.0001 0 0 0 9.5625 18.375 L 3.8125 24.125 C 4.1862419 24.674624 4.6197042 25.194381 5.0625 25.6875 L 10.96875 19.78125 A 1.0001 1.0001 0 0 0 10.15625 18.0625 z M 10.3125 23.4375 A 1.0001 1.0001 0 0 0 10.0625 23.46875 A 1.0001 1.0001 0 0 0 9.5625 23.75 L 6.34375 26.96875 C 6.8507668 27.409873 7.4044931 27.817807 7.96875 28.1875 L 10.96875 25.1875 A 1.0001 1.0001 0 0 0 10.3125 23.4375 z "
       id="path3780-0-2"
       transform="translate(0,1020.3622)" />
    <path
       style="fill:none;stroke:#4d4d4d;stroke-width:1.7;stroke-linecap:round;stroke-linejoin:miter;stroke-miterlimit:4;stroke-opacity:1;stroke-dasharray:none"
       d="m 10.42479,1049.2318 0,-25.8063"
       id="path3780"
       inkscape:connector-curvature="0"
       sodipodi:nodetypes="cc" />
  </g>
</svg>
